<svg width="254" height="51" viewBox="0 0 254 51" fill="none" xmlns="http://www.w3.org/2000/svg">
<path d="M29.78 13.2679V48.3396L55.9541 48.3396V13.2679L29.78 13.2679Z" fill="#00BED7"/>
<path fill-rule="evenodd" clip-rule="evenodd" d="M13.9541 4.5V39.1236L29.78 48.3396V13.2679L13.9541 4.5Z" fill="#16D6EF"/>
<path d="M29.78 13.2679L55.9541 13.2679L39.0575 4.5H13.9541L29.78 13.2679Z" fill="#76EFFF"/>
<path d="M39.8884 42.5H38.7805L41.985 33.7727H43.0759L46.2805 42.5H45.1725L42.5645 35.1534H42.4964L39.8884 42.5ZM40.2975 39.0909H44.7634V40.0284H40.2975V39.0909Z" fill="white"/>
<path d="M40.3148 28.5L41.7466 19.7727H42.5989L41.1671 28.5H40.3148ZM36.3432 26.0795L36.4796 25.2273H42.9909L42.8546 26.0795H36.3432ZM37.2466 28.5L38.6784 19.7727H39.5307L38.0989 28.5H37.2466ZM36.8546 23.0455L36.9909 22.1932H43.5023L43.3659 23.0455H36.8546ZM47.6806 19.7727V28.5H46.6238V20.8807H46.5726L44.4419 22.2955V21.2216L46.6238 19.7727H47.6806Z" fill="#444444"/>
<path d="M0.5 0.500005L15.9589 10.5H33.2794L15.9589 0.500004L0.5 0.500005Z" fill="#FF6161"/>
<path d="M15.9589 10.5V50.5H33.2794V10.5H15.9589Z" fill="#CC1010"/>
<path d="M252.959 50.5V10.5H241.775V50.5H252.959Z" fill="#5302EB"/>
<path d="M252.959 10.5L236.454 0.5L224.454 0.5L241.775 10.5H252.959Z" fill="#A97BFF"/>
<path d="M15.9589 10.5V50.5M15.9589 10.5L0.5 0.500005M15.9589 10.5H33.2794M15.9589 50.5L0.5 39.989V0.500005M15.9589 50.5H33.2794M252.959 10.5V50.5H241.775M252.959 10.5L236.454 0.5L224.454 0.5M252.959 10.5H241.775M0.5 0.500005L15.9589 0.500004M15.9589 0.500004L33.2794 10.5M15.9589 0.500004L224.454 0.5M33.2794 10.5V50.5M33.2794 10.5H241.775M33.2794 50.5H241.775M224.454 0.5L241.775 10.5M241.775 10.5V50.5" stroke="black"/>
<path d="M27.1626 18.8636C27.1626 19.6307 27.0241 20.2936 26.7471 20.8523C26.4701 21.411 26.0901 21.8419 25.6072 22.1449C25.1242 22.4479 24.5726 22.5994 23.9523 22.5994C23.3321 22.5994 22.7805 22.4479 22.2975 22.1449C21.8145 21.8419 21.4346 21.411 21.1576 20.8523C20.8806 20.2936 20.7421 19.6307 20.7421 18.8636C20.7421 18.0966 20.8806 17.4337 21.1576 16.875C21.4346 16.3163 21.8145 15.8854 22.2975 15.5824C22.7805 15.2794 23.3321 15.1278 23.9523 15.1278C24.5726 15.1278 25.1242 15.2794 25.6072 15.5824C26.0901 15.8854 26.4701 16.3163 26.7471 16.875C27.0241 17.4337 27.1626 18.0966 27.1626 18.8636ZM26.3103 18.8636C26.3103 18.2339 26.2049 17.7024 25.9942 17.2692C25.7859 16.8359 25.503 16.508 25.1455 16.2855C24.7904 16.063 24.3927 15.9517 23.9523 15.9517C23.512 15.9517 23.1131 16.063 22.7556 16.2855C22.4005 16.508 22.1176 16.8359 21.9069 17.2692C21.6985 17.7024 21.5944 18.2339 21.5944 18.8636C21.5944 19.4934 21.6985 20.0249 21.9069 20.4581C22.1176 20.8913 22.4005 21.2192 22.7556 21.4418C23.1131 21.6643 23.512 21.7756 23.9523 21.7756C24.3927 21.7756 24.7904 21.6643 25.1455 21.4418C25.503 21.2192 25.7859 20.8913 25.9942 20.4581C26.2049 20.0249 26.3103 19.4934 26.3103 18.8636ZM25.9015 27.2273H26.7821V32.0426C26.7821 32.5398 26.665 32.9837 26.4306 33.3743C26.1986 33.7625 25.8707 34.0691 25.4469 34.294C25.0231 34.5166 24.526 34.6278 23.9554 34.6278C23.3849 34.6278 22.8877 34.5166 22.464 34.294C22.0402 34.0691 21.7111 33.7625 21.4767 33.3743C21.2447 32.9837 21.1287 32.5398 21.1287 32.0426V27.2273H22.0094V31.9716C22.0094 32.3267 22.0875 32.6428 22.2438 32.9197C22.4 33.1944 22.6226 33.411 22.9114 33.5696C23.2026 33.7259 23.5506 33.804 23.9554 33.804C24.3603 33.804 24.7083 33.7259 24.9995 33.5696C25.2907 33.411 25.5132 33.1944 25.6671 32.9197C25.8233 32.6428 25.9015 32.3267 25.9015 31.9716V27.2273ZM21.229 40.0085V39.2273H26.6836V40.0085H24.3967V46.5H23.516V40.0085H21.229Z" fill="white"/>
<path d="M248.392 20.2273V27.5H247.512V20.2273H248.392ZM250.837 32.2273V39.5H249.985L246.022 33.7898H245.951V39.5H245.07V32.2273H245.922L249.9 37.9517H249.971V32.2273H250.837Z" fill="white"/>
</svg>
